<?xml version="1.0" standalone="no"?>
<!DOCTYPE svg PUBLIC "-//W3C//DTD SVG 20010904//EN"
 "http://www.w3.org/TR/2001/REC-SVG-20010904/DTD/svg10.dtd">
<svg version="1.0" xmlns="http://www.w3.org/2000/svg"
 width="700.000000pt" height="700.000000pt" viewBox="0 0 700.000000 700.000000"
 preserveAspectRatio="xMidYMid meet">
<metadata>
Created by potrace 1.14, written by Peter Selinger 2001-2017
</metadata>
<g transform="translate(0.000000,700.000000) scale(0.100000,-0.100000)"
fill="#000000" stroke="none">
<path d="M3117 6985 c-38 -5 -65 -14 -61 -18 5 -5 -4 -3 -19 2 -17 7 -35 7
-45 2 -9 -4 -23 -6 -29 -4 -7 3 -13 -1 -13 -8 0 -9 -3 -10 -11 -2 -11 11 -52
6 -45 -6 2 -3 -19 -7 -46 -8 -28 0 -53 -5 -57 -10 -3 -4 -17 -8 -31 -7 -14 0
-35 -3 -48 -8 -12 -4 -33 -10 -45 -12 -35 -6 -107 -27 -136 -38 -14 -6 -33
-12 -41 -13 -13 -1 -59 -15 -110 -33 -8 -3 -18 -6 -22 -6 -3 -1 -10 -4 -14 -8
-4 -5 -16 -8 -26 -8 -10 0 -18 -4 -18 -9 0 -5 -6 -8 -12 -7 -25 2 -188 -67
-181 -77 3 -5 1 -7 -5 -3 -12 7 -62 -13 -62 -25 0 -5 -6 -6 -14 -3 -8 3 -17 0
-21 -5 -3 -6 -11 -9 -16 -6 -5 4 -9 -2 -9 -12 0 -13 -3 -14 -8 -6 -6 10 -22 5
-63 -20 -124 -74 -151 -89 -145 -76 4 8 2 7 -6 -2 -7 -9 -19 -14 -27 -11 -8 3
-11 0 -7 -6 3 -6 -3 -13 -14 -17 -11 -4 -18 -11 -14 -16 3 -5 2 -8 -3 -7 -15
4 -53 -13 -48 -22 3 -5 0 -12 -6 -16 -8 -4 -9 -3 -5 4 4 7 3 12 -1 12 -12 0
-107 -63 -135 -90 -13 -12 -42 -33 -65 -47 -24 -14 -43 -29 -43 -35 0 -5 -4
-6 -10 -3 -5 3 -15 -3 -22 -15 -7 -11 -17 -20 -23 -20 -6 0 -19 -11 -29 -25
-10 -14 -25 -25 -32 -25 -8 0 -19 -9 -26 -20 -7 -11 -19 -20 -27 -20 -11 0
-11 -3 0 -17 9 -10 9 -14 2 -10 -7 4 -25 -4 -43 -20 -74 -66 -280 -270 -280
-277 0 -4 -9 -19 -20 -33 -11 -14 -20 -23 -20 -19 0 3 -11 -4 -25 -16 -14 -12
-25 -26 -25 -30 0 -5 -12 -21 -27 -35 -16 -14 -19 -19 -8 -12 18 13 -39 -57
-75 -91 -14 -13 -14 -14 0 -6 8 4 -1 -6 -20 -24 -19 -18 -29 -29 -22 -25 11 6
11 3 0 -14 -7 -12 -16 -21 -20 -21 -14 0 -59 -80 -52 -92 4 -6 3 -8 -4 -4 -6
3 -13 -3 -17 -14 -3 -11 -11 -20 -16 -20 -5 0 -9 -5 -9 -10 0 -6 -8 -19 -17
-30 -10 -10 -29 -40 -43 -67 -14 -26 -28 -50 -31 -53 -3 -3 -15 -25 -27 -50
-13 -25 -32 -61 -42 -80 -36 -65 -110 -228 -110 -243 0 -8 -9 -34 -19 -58 -11
-24 -17 -47 -15 -51 3 -4 0 -8 -5 -8 -6 0 -11 -6 -11 -14 0 -7 -7 -27 -15 -42
-8 -16 -15 -38 -15 -49 0 -11 -7 -31 -16 -43 -8 -12 -12 -27 -9 -32 3 -6 2
-10 -4 -10 -6 0 -9 -16 -7 -35 1 -19 -1 -35 -6 -35 -4 0 -8 -9 -8 -19 0 -11
-4 -22 -10 -26 -5 -3 -7 -12 -3 -20 3 -9 0 -22 -7 -30 -7 -8 -13 -27 -15 -42
-2 -15 -8 -46 -14 -67 -5 -22 -8 -44 -5 -48 3 -4 1 -8 -3 -8 -5 0 -10 -10 -11
-22 -1 -13 -5 -43 -8 -68 -4 -25 -8 -59 -8 -77 -1 -17 -4 -29 -7 -27 -4 2 -9
-6 -13 -19 -9 -35 -7 -49 7 -41 9 6 9 5 0 -7 -24 -30 -38 -221 -18 -248 7 -11
7 -13 -3 -7 -9 6 -13 -1 -13 -26 1 -18 -1 -94 -3 -168 -2 -74 -1 -139 2 -145
3 -5 7 -48 8 -96 1 -48 5 -106 9 -129 12 -72 16 -103 17 -147 1 -32 6 -43 17
-44 10 0 11 -3 4 -5 -9 -4 -9 -13 -2 -30 5 -14 10 -48 12 -75 1 -27 4 -49 7
-49 3 0 7 -16 8 -36 2 -20 7 -45 12 -55 6 -10 7 -25 4 -33 -3 -9 -1 -16 5 -16
6 0 8 -6 5 -14 -3 -8 0 -17 6 -21 6 -4 8 -15 5 -26 -4 -10 -2 -19 3 -19 5 0 9
-6 10 -12 2 -40 20 -103 28 -101 5 1 10 -8 11 -20 5 -49 16 -97 22 -97 4 0 7
-8 8 -18 2 -31 49 -123 58 -115 4 5 5 2 1 -5 -9 -15 2 -54 14 -47 4 3 8 -1 7
-8 -1 -31 4 -48 12 -43 5 4 7 -2 5 -11 -2 -10 2 -29 10 -43 8 -14 39 -72 67
-130 29 -58 56 -106 61 -108 4 -2 8 -8 8 -13 0 -5 11 -27 25 -49 14 -22 23
-40 19 -40 -3 0 4 -13 15 -29 12 -16 21 -33 21 -38 0 -5 8 -18 18 -29 9 -10
23 -31 29 -46 7 -16 17 -28 23 -28 6 0 8 -5 5 -10 -3 -6 1 -13 9 -16 9 -3 16
-11 16 -18 0 -6 13 -26 29 -44 17 -17 28 -32 25 -32 -3 0 0 -6 6 -13 5 -6 31
-39 57 -72 117 -147 324 -365 348 -365 8 0 14 -3 13 -7 -6 -23 136 -148 155
-136 5 3 7 1 3 -5 -6 -10 71 -92 87 -92 4 0 20 -12 35 -26 15 -14 40 -32 55
-40 15 -8 39 -24 52 -36 13 -11 26 -18 29 -17 3 2 12 -5 20 -16 9 -11 16 -17
16 -13 0 4 11 -4 25 -18 14 -14 30 -22 35 -19 6 3 10 1 10 -5 0 -6 17 -18 38
-27 20 -8 44 -22 54 -30 9 -8 49 -32 90 -53 40 -21 95 -50 123 -64 27 -15 56
-24 64 -21 9 3 12 3 8 -1 -10 -10 142 -76 155 -68 7 4 8 2 4 -4 -4 -7 6 -15
26 -21 18 -5 65 -21 103 -36 39 -15 77 -28 85 -30 8 -1 29 -8 45 -15 34 -14
190 -59 220 -64 11 -2 31 -5 45 -9 33 -7 127 -26 163 -32 15 -3 39 -8 55 -11
15 -3 38 -7 52 -8 14 -2 32 -5 40 -9 33 -12 46 -14 73 -6 19 5 30 4 33 -4 3
-8 39 -12 117 -12 61 0 129 -3 150 -6 20 -4 37 -4 37 0 0 3 78 5 172 4 100 -1
178 3 185 8 6 6 14 6 17 1 8 -13 191 -2 237 14 13 4 29 8 34 9 41 3 175 30
175 35 0 4 15 6 33 6 17 -1 31 4 30 9 -1 6 15 10 35 11 47 1 166 34 312 84 63
22 122 42 130 44 16 4 43 15 95 37 17 7 32 13 35 14 3 1 36 16 74 35 39 18 76
33 83 33 7 0 13 3 13 7 0 3 21 14 48 23 26 10 60 28 76 42 16 14 35 25 42 25
7 0 19 6 26 13 7 7 34 25 60 40 26 15 52 35 57 45 7 11 11 12 11 4 0 -13 45
13 78 45 6 6 21 15 32 18 11 3 20 11 20 16 0 5 7 9 15 9 8 0 15 5 15 10 0 6 6
10 13 10 7 0 19 9 27 20 8 11 19 20 25 20 19 1 57 39 49 51 -4 8 -3 9 4 5 6
-4 20 2 32 14 11 11 20 17 20 14 0 -4 21 13 48 37 26 24 65 59 86 76 22 18 36
33 32 33 -4 0 9 16 30 35 20 19 41 35 46 35 5 0 6 5 3 10 -3 6 -1 10 4 10 17
0 81 72 74 83 -3 6 -2 7 4 4 14 -9 76 61 67 75 -5 7 -3 8 5 3 8 -4 21 1 32 14
11 12 17 21 14 21 -2 0 10 14 28 31 17 17 31 35 30 40 -2 5 1 9 5 9 5 0 29 23
53 52 24 29 37 49 29 44 -8 -4 -7 -1 3 7 9 8 17 19 17 26 0 6 5 11 11 11 6 0
9 7 5 15 -3 8 -1 14 5 12 6 -1 16 7 22 18 7 11 16 23 21 26 5 4 5 13 1 20 -5
8 -4 11 0 6 7 -6 58 63 102 137 7 12 17 28 23 36 15 21 29 47 95 180 32 63 62
118 68 121 5 4 7 16 4 28 -3 12 -2 19 3 16 4 -2 15 15 25 38 10 23 29 66 42
95 20 44 67 177 78 217 1 6 7 21 12 35 8 18 7 29 -1 39 -8 11 -8 13 2 7 7 -4
12 -2 13 6 0 7 3 22 5 33 3 11 6 30 7 42 1 11 5 19 10 16 8 -5 10 10 7 45 -1
12 2 22 7 22 4 0 9 18 10 40 2 22 9 56 18 76 8 20 12 40 9 45 -2 5 -1 17 5 26
5 10 10 36 12 58 1 22 5 45 8 50 3 6 7 27 8 47 1 21 7 48 14 59 8 16 8 20 -1
14 -9 -6 -9 -3 -1 13 7 14 8 23 1 27 -6 4 -7 12 -3 18 12 19 13 34 19 160 4
96 2 117 -8 111 -10 -6 -10 -4 -2 7 16 21 17 98 2 117 -7 9 -8 13 -3 10 7 -4
11 39 11 128 0 74 -3 134 -8 134 -4 0 -8 5 -8 11 0 5 6 7 13 3 9 -5 9 -4 0 6
-6 7 -9 19 -6 26 3 8 1 14 -4 14 -10 0 -10 46 0 57 10 9 9 25 -1 19 -4 -2 -9
23 -10 57 -2 33 -7 68 -11 76 -5 9 -7 27 -6 41 1 14 -1 30 -6 35 -4 6 -9 30
-10 53 -2 23 -6 42 -10 42 -4 0 -11 29 -14 65 -4 36 -11 65 -16 65 -4 0 -6 10
-4 22 3 12 0 27 -5 33 -6 7 -11 24 -12 38 -1 15 -8 29 -16 32 -7 3 -10 9 -7
15 7 11 -26 123 -37 128 -5 2 -6 8 -2 13 3 5 -1 22 -9 38 -8 17 -21 52 -28 80
-7 28 -16 51 -19 51 -4 0 -15 24 -25 54 -10 30 -22 53 -26 50 -4 -2 -5 5 -2
16 3 12 0 20 -8 20 -7 0 -9 3 -6 6 9 9 -12 46 -23 39 -4 -3 -6 3 -3 13 2 11
-7 36 -21 57 -15 21 -29 50 -32 64 -4 14 -12 31 -19 36 -6 6 -20 27 -29 47
-10 21 -23 35 -29 31 -5 -3 -7 -1 -4 4 7 11 -64 156 -72 148 -2 -3 -12 10 -21
29 -8 19 -28 49 -43 65 -15 17 -27 34 -27 39 0 4 -13 22 -30 40 -16 18 -31 36
-32 40 -2 4 -7 6 -11 4 -5 -1 -6 2 -3 7 4 5 -1 16 -9 24 -8 9 -15 20 -15 26 0
5 -10 17 -22 26 -13 8 -21 16 -18 18 5 3 -22 36 -90 109 -30 32 -75 81 -99
108 -24 27 -48 47 -54 43 -5 -3 -7 -2 -4 4 5 8 -84 103 -97 103 -2 0 -26 21
-53 47 -26 26 -51 47 -55 45 -5 -1 -8 5 -8 13 0 8 -6 15 -13 15 -7 0 -26 12
-42 27 -16 16 -45 39 -65 52 -19 13 -41 32 -48 43 -7 10 -17 16 -22 13 -4 -3
-11 2 -14 11 -4 9 -9 14 -12 11 -4 -3 -20 7 -38 23 -17 17 -35 30 -39 30 -4 0
-18 9 -30 21 -12 11 -29 18 -39 16 -11 -3 -15 0 -11 9 3 8 -1 14 -11 14 -9 0
-16 4 -16 9 0 9 -48 26 -63 22 -5 -1 -6 2 -3 7 2 4 -11 16 -30 27 -19 10 -34
22 -34 28 0 5 -11 7 -25 5 -13 -3 -22 -2 -20 3 5 7 -12 23 -25 24 -3 1 -24 11
-48 23 -23 13 -48 20 -54 16 -6 -4 -8 -3 -5 3 5 9 -41 38 -52 33 -2 -1 -7 4
-11 10 -4 7 -19 13 -34 13 -14 1 -26 6 -26 11 0 4 -7 5 -16 2 -8 -3 -13 -2
-10 3 5 8 -32 24 -59 25 -5 1 -12 4 -15 7 -12 13 -92 39 -102 33 -6 -4 -8 -3
-5 3 6 9 -33 24 -68 27 -5 1 -12 4 -15 7 -11 12 -172 59 -182 53 -6 -4 -8 -3
-5 3 8 13 -75 35 -99 26 -12 -4 -15 -3 -10 5 7 11 -13 16 -66 15 -10 0 -18 3
-18 7 0 3 -15 7 -32 8 -18 1 -46 7 -63 12 -16 5 -55 10 -85 12 -30 2 -58 7
-61 11 -6 8 -16 10 -103 22 -36 5 -51 3 -57 -7 -6 -8 -9 -9 -9 -1 0 11 -24 12
-405 17 -84 1 -146 -2 -154 -9 -11 -7 -13 -7 -7 3 4 6 3 12 -1 12 -5 0 -15 -6
-22 -12 -8 -7 -11 -8 -8 -2 7 13 -53 13 -146 -1z m503 -261 c14 -1 31 3 39 10
9 7 12 7 9 0 -5 -7 13 -10 50 -11 31 0 64 -3 72 -6 8 -3 49 -8 90 -11 105 -9
154 -15 240 -32 19 -4 45 -8 57 -8 11 -1 19 -4 17 -7 -4 -6 16 -11 102 -23 17
-3 57 -12 88 -21 30 -9 61 -13 68 -9 7 4 10 4 6 -1 -5 -5 40 -25 100 -45 59
-20 117 -42 130 -49 13 -7 30 -10 38 -7 8 3 13 2 10 -3 -3 -4 21 -20 53 -34
94 -42 156 -72 161 -78 3 -3 23 -13 45 -22 22 -10 47 -22 55 -27 8 -5 43 -24
78 -42 34 -17 62 -36 62 -41 0 -5 7 -6 16 -3 9 3 12 2 9 -5 -4 -6 2 -13 14
-16 12 -3 21 -9 21 -13 0 -4 12 -15 26 -25 16 -10 23 -12 18 -4 -4 7 6 3 23
-9 17 -12 33 -18 37 -15 4 4 4 0 0 -10 -6 -16 4 -22 29 -18 4 0 7 -4 7 -10 0
-5 5 -7 10 -4 6 3 10 -1 10 -10 0 -8 10 -19 23 -24 12 -5 33 -21 46 -35 14
-14 30 -26 37 -26 6 0 17 -7 24 -15 7 -8 17 -12 23 -8 5 3 7 1 4 -4 -4 -6 4
-18 17 -26 24 -16 330 -317 321 -317 -2 0 8 -12 22 -27 14 -16 55 -64 90 -108
90 -112 86 -107 104 -135 9 -14 28 -38 43 -55 14 -16 26 -36 26 -42 0 -7 4
-13 9 -13 5 0 20 -22 34 -50 13 -27 28 -46 32 -42 5 4 5 2 2 -4 -8 -15 22 -56
35 -48 7 4 8 2 4 -4 -7 -11 27 -85 36 -77 3 3 5 -1 5 -7 0 -25 109 -238 118
-231 4 4 5 2 1 -5 -10 -16 34 -123 47 -115 6 3 7 1 3 -6 -10 -16 3 -53 16 -45
6 4 8 2 5 -3 -6 -10 70 -261 83 -273 3 -3 5 -13 6 -22 3 -67 5 -79 12 -75 4 3
8 -11 10 -31 1 -19 9 -48 16 -64 8 -16 11 -26 6 -23 -4 3 -6 -21 -3 -53 5 -57
-10 -101 -50 -148 -43 -49 -241 -244 -249 -244 -6 0 -7 -7 -4 -16 3 -9 2 -12
-5 -9 -5 4 -31 -10 -57 -31 -26 -22 -53 -43 -60 -49 -7 -5 -22 -18 -33 -27
-10 -10 -25 -18 -33 -18 -7 0 -20 -8 -27 -17 -12 -14 -12 -16 0 -8 9 5 12 4 7
-3 -4 -6 -14 -8 -23 -5 -10 4 -14 2 -10 -4 5 -8 -2 -9 -20 -4 -22 5 -36 23
-66 81 -36 73 -105 190 -116 200 -3 3 -24 28 -46 55 -63 80 -135 153 -210 215
-360 295 -812 425 -1230 355 -203 -34 -297 -64 -470 -150 -149 -73 -267 -158
-394 -284 -132 -131 -190 -200 -184 -219 4 -14 3 -14 -5 -3 -6 8 -21 16 -34
18 -13 2 -30 6 -38 10 -28 12 -61 12 -54 0 3 -7 0 -5 -8 3 -8 9 -29 16 -51 15
-62 0 -65 21 -17 122 35 75 109 270 109 291 1 9 12 92 18 117 8 44 4 243 -7
290 -6 28 -13 59 -16 69 -14 72 -81 223 -127 290 -12 17 -44 58 -72 91 -127
151 -265 256 -408 310 -62 23 -81 28 -152 40 -16 3 -53 10 -82 16 -166 33
-412 -2 -593 -84 -229 -104 -430 -336 -519 -599 -16 -47 -32 -109 -36 -139 -5
-30 -10 -65 -12 -79 -5 -36 -5 -199 1 -208 2 -4 8 -42 11 -85 6 -65 4 -78 -9
-83 -9 -3 -13 -10 -10 -15 3 -5 -2 -6 -10 -3 -24 9 -363 -110 -386 -135 -3 -3
-12 -6 -20 -6 -8 0 -14 -6 -12 -14 2 -9 -3 -11 -13 -7 -19 7 -176 -74 -168
-87 3 -6 1 -7 -5 -3 -20 12 -291 -177 -292 -203 0 -8 -3 -11 -6 -8 -4 3 -18
-3 -32 -13 -13 -11 -29 -20 -34 -20 -13 0 0 216 18 285 10 40 18 101 19 142 0
22 3 39 8 36 4 -2 7 -1 8 4 1 16 9 59 21 113 7 30 12 65 12 77 0 12 4 20 8 17
7 -5 12 22 11 69 0 9 5 17 10 17 5 0 7 9 4 21 -3 12 -3 18 0 15 3 -3 25 50 48
117 23 67 57 156 75 197 18 41 33 85 34 97 0 12 4 21 8 20 3 -1 28 41 56 93
83 160 190 334 217 352 6 5 6 8 0 8 -7 0 -6 3 0 8 26 18 66 76 61 88 -3 8 1
14 9 14 8 0 15 4 15 8 0 5 16 25 35 45 20 21 33 37 29 37 -4 0 5 9 20 21 14
11 26 25 26 30 0 10 43 61 77 92 12 11 20 25 16 30 -3 6 -2 7 4 4 11 -7 69 52
65 66 -1 4 2 6 6 3 5 -3 34 21 64 52 30 32 62 61 71 65 9 3 17 13 17 22 0 8 5
15 11 15 19 0 99 72 92 83 -3 6 -1 7 5 3 6 -4 29 9 50 29 22 19 42 35 46 35 9
0 120 91 124 102 2 4 8 5 13 2 6 -3 18 1 27 9 9 8 56 38 105 67 51 30 84 56
80 62 -3 7 -1 8 5 4 14 -9 175 78 164 89 -4 4 -2 5 4 2 19 -11 209 75 196 87
-3 4 1 4 11 0 10 -3 17 -1 17 6 0 6 4 9 8 6 5 -3 37 4 73 16 35 11 71 21 79
22 8 1 31 10 50 18 19 9 64 24 100 33 36 9 68 22 72 28 6 9 8 8 8 -1 0 -9 5
-10 19 -3 10 6 21 7 25 4 3 -3 6 -2 6 4 0 6 9 9 20 6 11 -3 20 -1 20 4 0 5 15
7 33 5 20 -2 40 2 48 10 8 7 30 14 49 14 19 1 53 4 75 8 22 3 74 9 115 12 41
3 98 9 125 13 28 4 114 6 192 5 98 -1 141 1 136 9 -4 6 -1 7 8 1 8 -4 25 -9
39 -10z m-804 -1614 c73 -36 126 -91 163 -169 22 -48 26 -69 25 -146 -1 -75
-5 -100 -27 -147 -62 -138 -208 -219 -365 -204 -206 20 -344 201 -311 408 12
77 62 171 113 213 52 43 138 80 191 84 22 2 41 4 43 5 9 10 117 -19 168 -44z
m-1233 -927 c-7 -2 -21 -2 -30 0 -10 3 -4 5 12 5 17 0 24 -2 18 -5z m100 0
c-13 -2 -33 -2 -45 0 -13 2 -3 4 22 4 25 0 35 -2 23 -4z m75 0 c-10 -2 -26 -2
-35 0 -10 3 -2 5 17 5 19 0 27 -2 18 -5z m130 0 c-10 -2 -28 -2 -40 0 -13 2
-5 4 17 4 22 1 32 -1 23 -4z m57 -3 c3 -5 1 -10 -4 -10 -6 0 -11 5 -11 10 0 6
2 10 4 10 3 0 8 -4 11 -10z m40 0 c3 -5 -1 -10 -10 -10 -9 0 -13 5 -10 10 3 6
8 10 10 10 2 0 7 -4 10 -10z m-488 -6 c-3 -3 -12 -4 -19 -1 -8 3 -5 6 6 6 11
1 17 -2 13 -5z m556 -11 c-7 -2 -19 -2 -25 0 -7 3 -2 5 12 5 14 0 19 -2 13 -5z
m108 -10 c12 -16 12 -17 -2 -6 -9 7 -20 9 -24 5 -5 -4 -5 -1 -1 6 9 16 11 15
27 -5z m-1026 -53 c-3 -5 -12 -10 -18 -10 -7 0 -6 4 3 10 19 12 23 12 15 0z
m959 1 c3 -4 -6 -6 -19 -3 -14 2 -25 6 -25 8 0 8 39 4 44 -5z m41 -1 c3 -6 -1
-7 -9 -4 -18 7 -21 14 -7 14 6 0 13 -4 16 -10z m-162 -7 c-7 -2 -21 -2 -30 0
-10 3 -4 5 12 5 17 0 24 -2 18 -5z m3443 -17 c63 -20 145 -92 172 -149 62
-132 37 -281 -62 -377 -72 -70 -149 -96 -251 -87 -82 8 -144 37 -195 94 -64
69 -84 122 -85 224 0 79 3 92 35 154 26 51 47 77 83 102 83 59 200 74 303 39z
m-4361 4 c-3 -5 -12 -10 -18 -10 -7 0 -6 4 3 10 19 12 23 12 15 0z m848 3 c-7
-2 -19 -2 -25 0 -7 3 -2 5 12 5 14 0 19 -2 13 -5z m-86 -9 c-3 -3 -12 -4 -19
-1 -8 3 -5 6 6 6 11 1 17 -2 13 -5z m-90 -10 c-3 -3 -12 -4 -19 -1 -8 3 -5 6
6 6 11 1 17 -2 13 -5z m-747 -24 c-8 -5 -19 -10 -25 -10 -5 0 -3 5 5 10 8 5
20 10 25 10 6 0 3 -5 -5 -10z m-40 -4 c0 -2 -12 -11 -27 -20 l-28 -17 24 20
c23 21 31 25 31 17z m523 -23 c-7 -2 -19 -2 -25 0 -7 3 -2 5 12 5 14 0 19 -2
13 -5z m-43 -13 c0 -5 -2 -10 -4 -10 -3 0 -8 5 -11 10 -3 6 -1 10 4 10 6 0 11
-4 11 -10z m-45 -10 c-3 -5 -12 -10 -18 -10 -7 0 -6 4 3 10 19 12 23 12 15 0z
m11 -24 c0 -1 26 -38 58 -84 32 -46 55 -89 53 -96 -3 -8 -17 -16 -31 -20 -14
-3 -38 -11 -53 -18 -15 -6 -30 -12 -33 -13 -3 -1 -18 -7 -34 -14 -16 -6 -37
-13 -47 -14 -10 -2 -21 -6 -25 -9 -3 -4 -12 -4 -20 -1 -8 3 -14 -1 -14 -8 0
-7 -3 -10 -6 -7 -3 4 -30 -5 -60 -19 -29 -13 -64 -26 -77 -28 -13 -3 -57 -21
-98 -41 -40 -20 -80 -37 -86 -37 -7 0 -13 -4 -13 -9 0 -4 -6 -8 -13 -8 -7 0
-23 -9 -34 -19 -12 -11 -23 -18 -26 -15 -2 2 -24 -7 -47 -20 -24 -14 -48 -22
-54 -19 -5 4 -7 -1 -2 -12 5 -15 4 -16 -9 -5 -12 10 -16 9 -21 -4 -3 -9 -10
-13 -15 -10 -5 3 -9 1 -9 -4 0 -4 -21 -19 -47 -32 -66 -32 -103 -61 -96 -73 3
-6 1 -7 -5 -3 -12 7 -66 -25 -115 -66 -17 -16 -35 -28 -40 -28 -4 0 -5 -6 -1
-12 4 -7 4 -10 0 -6 -5 4 -20 2 -34 -3 -29 -11 -42 1 -42 39 0 14 -4 21 -11
16 -8 -4 -8 -1 -2 12 9 18 9 45 0 106 -2 15 0 25 4 22 5 -3 9 2 9 10 0 31 98
108 243 191 37 22 67 43 67 47 0 12 -7 10 -24 -8 -9 -8 -16 -11 -16 -5 0 18
36 31 49 18 10 -9 11 -8 6 4 -4 10 -1 20 6 25 8 4 10 3 5 -4 -4 -7 -1 -12 9
-12 12 0 15 5 11 16 -5 14 -4 15 8 5 11 -9 18 -8 32 6 10 10 18 16 18 14 1 -2
11 -1 24 3 12 4 20 11 18 15 -3 4 1 8 8 8 24 0 76 25 70 34 -3 5 3 6 12 2 13
-5 15 -3 9 7 -5 8 -4 11 3 7 13 -9 44 2 37 13 -3 5 0 12 6 16 8 4 9 3 5 -4
-10 -16 9 -15 26 1 7 6 20 13 28 15 29 5 70 24 66 31 -2 3 6 7 19 7 29 2 85
26 85 36 0 4 7 4 17 1 11 -4 14 -3 9 5 -5 8 -2 10 8 6 9 -3 16 -1 16 5 0 6 7
8 17 4 11 -5 14 -3 8 6 -5 10 -2 11 12 7 13 -4 25 0 33 9 7 8 21 13 30 10 9
-3 23 1 29 9 9 10 23 13 49 9 20 -3 37 -6 38 -7z m1498 -94 c3 -5 -1 -9 -9 -9
-8 0 -12 4 -9 9 3 4 7 8 9 8 2 0 6 -4 9 -8z m-888 -20 c-10 -2 -22 0 -28 6 -6
6 0 7 19 4 21 -5 23 -7 9 -10z m131 12 c-3 -3 -12 -4 -19 -1 -8 3 -5 6 6 6 11
1 17 -2 13 -5z m833 -4 c-8 -5 -19 -10 -25 -10 -5 0 -3 5 5 10 8 5 20 10 25
10 6 0 3 -5 -5 -10z m-1110 -20 c0 -5 -5 -10 -11 -10 -5 0 -7 5 -4 10 3 6 8
10 11 10 2 0 4 -4 4 -10z m1157 4 c-3 -3 -12 -4 -19 -1 -8 3 -5 6 6 6 11 1 17
-2 13 -5z m89 -6 c4 4 4 2 0 -5 -4 -8 -16 -9 -35 -3 -16 4 -33 5 -37 2 -4 -4
-4 -2 0 5 4 8 16 9 35 3 16 -4 33 -5 37 -2z m-2556 -22 c0 -2 -8 -10 -17 -17
-16 -13 -17 -12 -4 4 13 16 21 21 21 13z m1094 -15 c3 -5 -1 -11 -9 -14 -9 -4
-12 -1 -8 9 6 16 10 17 17 5z m-64 -21 c0 -5 -5 -10 -11 -10 -5 0 -7 5 -4 10
3 6 8 10 11 10 2 0 4 -4 4 -10z m1870 -16 c0 -2 -7 -4 -15 -4 -8 0 -15 4 -15
10 0 5 7 7 15 4 8 -4 15 -8 15 -10z m55 -22 c-3 -3 -11 0 -18 7 -9 10 -8 11 6
5 10 -3 15 -9 12 -12z m-3060 -2 c-3 -5 -12 -10 -18 -10 -7 0 -6 4 3 10 19 12
23 12 15 0z m3135 6 c0 -3 -4 -8 -10 -11 -5 -3 -10 -1 -10 4 0 6 5 11 10 11 6
0 10 -2 10 -4z m115 -54 c-3 -3 -11 0 -18 7 -9 10 -8 11 6 5 10 -3 15 -9 12
-12z m-3179 -81 c-7 -11 -76 -52 -76 -46 0 4 70 53 78 54 2 1 1 -3 -2 -8z
m3679 -91 c3 -6 -1 -7 -9 -4 -18 7 -21 14 -7 14 6 0 13 -4 16 -10z m40 -18
c-3 -3 -11 0 -18 7 -9 10 -8 11 6 5 10 -3 15 -9 12 -12z m79 -31 c-2 -3 -12 3
-22 13 -16 17 -16 18 5 5 12 -7 20 -15 17 -18z m101 -31 c3 -6 -1 -7 -9 -4
-18 7 -21 14 -7 14 6 0 13 -4 16 -10z m40 -18 c-3 -3 -11 0 -18 7 -9 10 -8 11
6 5 10 -3 15 -9 12 -12z m1555 8 c-8 -5 -19 -10 -25 -10 -5 0 -3 5 5 10 8 5
20 10 25 10 6 0 3 -5 -5 -10z m-1423 -46 c-3 -3 -12 -4 -19 -1 -8 3 -5 6 6 6
11 1 17 -2 13 -5z m43 -14 c8 -5 11 -10 5 -10 -5 0 -17 5 -25 10 -8 5 -10 10
-5 10 6 0 17 -5 25 -10z m80 -23 c11 -5 9 -6 -4 -4 -11 1 -21 9 -23 17 -3 10
-2 11 4 4 4 -6 15 -14 23 -17z m137 -33 c-3 -3 -12 -4 -19 -1 -8 3 -5 6 6 6
11 1 17 -2 13 -5z m827 -2 c3 -5 -1 -9 -9 -9 -8 0 -12 4 -9 9 3 4 7 8 9 8 2 0
6 -4 9 -8z m1059 -19 c-5 -12 -3 -14 8 -8 11 7 12 6 2 -6 -8 -9 -11 -44 -10
-92 1 -42 -2 -78 -6 -80 -4 -1 -10 -17 -12 -35 -5 -39 -65 -134 -118 -184 -23
-23 -36 -42 -31 -49 4 -7 3 -9 -3 -6 -13 8 -83 -51 -83 -69 0 -7 -5 -16 -12
-20 -7 -5 -8 -3 -3 5 5 9 1 9 -14 -1 -12 -7 -21 -19 -21 -26 0 -7 -4 -11 -9
-8 -11 7 -53 -39 -44 -48 5 -4 1 -6 -7 -4 -9 2 -14 -3 -12 -14 1 -9 -2 -19 -8
-23 -6 -3 -7 0 -4 9 3 9 3 16 -1 16 -13 0 -94 -74 -89 -82 3 -4 -3 -5 -12 -1
-10 4 -15 2 -11 -3 3 -5 -2 -10 -11 -11 -9 -1 -28 -4 -41 -9 -22 -6 -24 -5
-18 17 4 13 12 55 17 92 6 38 14 77 20 86 5 10 6 22 2 26 -4 5 -2 5 4 2 6 -4
21 1 32 11 11 9 44 37 72 62 72 61 148 134 130 125 -8 -4 8 15 37 44 28 28 49
51 46 51 -6 0 72 97 96 120 24 24 83 110 75 110 -4 0 1 6 11 14 24 17 37 12
28 -11z m-1830 10 c-7 -2 -19 -2 -25 0 -7 3 -2 5 12 5 14 0 19 -2 13 -5z m57
-8 c0 -2 -9 -3 -19 -2 -11 0 -18 5 -15 9 4 6 34 0 34 -7z m175 -34 c-6 -5 -25
10 -25 20 0 5 6 4 14 -3 8 -7 12 -15 11 -17z m-68 13 c-3 -3 -12 -4 -19 -1 -8
3 -5 6 6 6 11 1 17 -2 13 -5z m301 -11 c-32 -2 -86 -2 -120 0 -35 2 -9 3 57 3
66 0 94 -1 63 -3z m99 1 c-3 -3 -12 -4 -19 -1 -8 3 -5 6 6 6 11 1 17 -2 13 -5z
m-3572 -135 c-4 -5 53 -9 142 -10 81 0 156 -2 166 -4 9 -2 17 1 17 6 0 9 -28
12 -122 9 -32 -1 -58 2 -58 7 0 4 44 7 97 6 54 -1 118 -2 142 -2 55 -1 48 -12
-8 -13 -57 -1 -52 -18 7 -19 26 0 56 -2 67 -4 84 -14 198 -25 207 -19 6 4 8 3
5 -3 -7 -11 159 -37 175 -27 6 4 8 3 5 -2 -7 -12 256 -69 278 -60 9 3 13 2 10
-4 -3 -5 7 -13 22 -16 72 -18 88 -54 97 -209 3 -49 8 -103 11 -120 26 -126 87
-298 153 -432 173 -350 473 -616 852 -756 83 -31 121 -41 230 -62 98 -19 343
-26 460 -12 114 13 132 17 209 38 241 68 482 203 656 369 156 149 226 241 321
427 28 56 54 100 57 97 7 -8 139 37 155 53 7 7 18 10 25 7 7 -2 22 4 34 15 11
11 24 17 27 14 3 -4 6 -1 6 6 0 7 5 9 10 6 6 -3 10 -1 10 6 0 7 3 10 6 6 3 -3
15 3 27 13 11 11 24 17 29 14 4 -3 8 0 8 5 0 6 3 10 8 9 8 -3 105 62 110 74 2
4 8 6 13 2 5 -3 9 0 9 5 0 6 5 11 10 11 11 0 6 -56 -7 -90 -31 -81 -50 -147
-46 -154 4 -5 1 -6 -4 -3 -10 6 -26 -29 -27 -58 -1 -5 -4 -14 -8 -20 -5 -5
-38 -70 -74 -144 -56 -113 -91 -178 -149 -273 -62 -102 -95 -151 -129 -194
-23 -28 -52 -66 -66 -84 -45 -60 -159 -194 -215 -251 -52 -53 -70 -79 -42 -63
7 4 9 3 4 -2 -5 -5 -14 -9 -20 -9 -7 -1 -11 -7 -9 -14 1 -7 -2 -10 -7 -7 -9 6
-26 -10 -33 -29 -1 -5 -9 -8 -17 -7 -9 2 -12 -2 -8 -12 4 -9 3 -15 -1 -15 -19
3 -32 -5 -82 -52 -30 -29 -54 -57 -52 -63 2 -6 0 -8 -4 -4 -4 4 -34 -15 -68
-43 -33 -28 -66 -54 -73 -56 -7 -3 -10 -9 -7 -14 3 -5 2 -9 -3 -8 -4 1 -11 0
-15 -1 -5 -1 -12 -3 -16 -4 -8 -1 -65 -45 -96 -73 -8 -7 -16 -10 -19 -7 -2 3
-14 -7 -26 -22 -11 -15 -21 -23 -21 -19 0 4 -6 3 -12 -3 -36 -29 -268 -152
-287 -152 -5 0 -11 -4 -13 -8 -4 -9 -93 -52 -108 -52 -6 0 -9 -4 -6 -8 2 -4
-3 -8 -13 -9 -9 -1 -55 -17 -102 -37 -106 -44 -221 -82 -288 -97 -28 -6 -49
-14 -47 -17 2 -4 -8 -7 -22 -8 -15 0 -43 -4 -62 -8 -19 -5 -44 -10 -55 -12
-42 -7 -140 -25 -150 -28 -35 -10 -151 -26 -230 -32 -67 -6 -625 -6 -650 -1
-11 3 -28 0 -39 -5 -12 -7 -16 -7 -12 0 4 6 -2 11 -11 11 -46 1 -129 9 -143
14 -40 15 -149 39 -177 40 -18 0 -33 3 -33 7 0 4 -24 10 -53 13 -30 3 -93 18
-140 34 -50 17 -87 25 -87 19 0 -8 -3 -7 -8 0 -11 17 -51 36 -62 29 -6 -3 -10
-1 -10 4 0 6 -6 11 -13 11 -7 0 -32 9 -55 20 -24 12 -47 18 -52 15 -6 -3 -10
-2 -10 3 0 5 -19 17 -42 27 -24 10 -61 26 -83 35 -89 37 -185 84 -185 91 0 3
-13 12 -29 19 -16 6 -53 27 -83 46 -29 19 -58 32 -65 30 -7 -3 -12 -1 -10 3 3
11 -40 49 -78 68 -16 9 -41 24 -54 34 -13 10 -28 16 -35 12 -6 -3 -8 -3 -4 2
4 4 -9 20 -30 36 -20 16 -44 35 -53 44 -9 8 -19 15 -23 15 -4 0 -13 6 -20 12
-7 7 -50 47 -96 88 -82 75 -242 235 -316 318 -22 24 -49 55 -61 68 -13 14 -23
28 -23 31 0 3 -15 22 -32 42 -43 48 -136 180 -167 234 -13 23 -26 44 -30 47
-12 9 -111 187 -111 200 0 7 -9 21 -21 31 -11 9 -19 19 -18 21 5 7 -25 78 -33
78 -4 0 -8 9 -8 21 0 11 -4 18 -9 15 -5 -3 -8 0 -8 7 3 24 -46 137 -56 130 -6
-3 -7 -1 -3 6 10 16 -13 83 -26 75 -7 -4 -8 -2 -4 5 7 11 -30 138 -44 151 -3
3 -5 11 -6 18 -3 37 -5 43 -11 39 -5 -3 -8 7 -9 21 0 15 -7 59 -14 99 -12 60
-12 76 -1 97 9 16 19 22 29 19 10 -4 13 -2 8 5 -4 6 1 10 11 10 16 -2 70 19
116 44 11 5 21 7 24 4 3 -3 23 4 44 15 22 11 39 17 39 15 0 -3 16 2 35 10 19
8 38 13 42 12 8 -2 113 27 143 39 8 3 18 6 22 5 4 -1 20 3 35 10 15 6 39 13
53 15 14 2 35 6 47 8 13 3 26 5 29 4 4 0 11 5 15 13 7 10 9 10 9 0 0 -7 5 -10
10 -7 6 4 8 9 6 13 -2 4 16 7 40 6 24 -1 44 2 44 6 0 4 10 6 23 6 12 -1 26 0
32 3 5 3 28 7 50 9 22 2 46 9 54 15 12 9 13 9 7 -1 -6 -10 2 -12 33 -11 22 2
38 6 36 9 -4 6 41 11 115 12 19 0 40 4 45 8 6 4 44 6 85 5 41 0 81 4 89 10 11
7 13 7 7 -2 -4 -7 -2 -13 3 -13 6 0 11 6 12 13 0 10 2 10 6 0 2 -7 12 -13 21
-13 15 0 15 2 2 10 -9 6 -10 10 -3 10 6 0 14 -4 17 -9 9 -14 61 -8 58 7 -1 8
2 11 8 7 6 -3 8 -11 5 -16z m39 13 c3 -5 -1 -9 -9 -9 -8 0 -12 4 -9 9 3 4 7 8
9 8 2 0 6 -4 9 -8z m96 -6 c0 -2 -19 -3 -42 -3 -38 -1 -40 0 -13 6 26 6 55 4
55 -3z m350 -10 c0 -2 -7 -6 -15 -10 -8 -3 -15 -1 -15 4 0 6 7 10 15 10 8 0
15 -2 15 -4z m150 -26 c0 -5 -7 -7 -15 -4 -8 4 -15 8 -15 10 0 2 7 4 15 4 8 0
15 -4 15 -10z m130 -14 c0 -11 -19 -15 -25 -6 -3 5 1 10 9 10 9 0 16 -2 16 -4z
m37 -12 c-3 -3 -12 -4 -19 -1 -8 3 -5 6 6 6 11 1 17 -2 13 -5z m77 -12 c3 -5
-1 -9 -9 -9 -8 0 -12 4 -9 9 3 4 7 8 9 8 2 0 6 -4 9 -8z m43 -18 c-3 -3 -12
-4 -19 -1 -8 3 -5 6 6 6 11 1 17 -2 13 -5z m162 -40 c9 -9 -53 7 -63 17 -5 5
5 4 24 -1 18 -5 35 -12 39 -16z m114 -21 c-7 -2 -19 -2 -25 0 -7 3 -2 5 12 5
14 0 19 -2 13 -5z m44 -9 c-3 -3 -12 -4 -19 -1 -8 3 -5 6 6 6 11 1 17 -2 13
-5z m190 -60 c-3 -3 -12 -4 -19 -1 -8 3 -5 6 6 6 11 1 17 -2 13 -5z m2963 -68
c0 -2 -8 -10 -17 -17 -16 -13 -17 -12 -4 4 13 16 21 21 21 13z m-2594 -67 c3
-5 -6 -5 -19 0 -14 6 -28 7 -33 3 -4 -4 -4 -2 -1 5 7 12 44 7 53 -8z m2469
-39 c-3 -5 -11 -10 -16 -10 -6 0 -7 5 -4 10 3 6 11 10 16 10 6 0 7 -4 4 -10z
m-135 -80 c-8 -5 -19 -10 -25 -10 -5 0 -3 5 5 10 8 5 20 10 25 10 6 0 3 -5 -5
-10z m-1950 -34 c0 -2 -7 -7 -16 -10 -8 -3 -12 -2 -9 4 6 10 25 14 25 6z
m1860 -10 c0 -2 -7 -7 -16 -10 -8 -3 -12 -2 -9 4 6 10 25 14 25 6z m-1756 -25
c18 -7 18 -8 3 -14 -9 -3 -17 -2 -17 3 0 5 -8 11 -17 13 -12 3 -13 5 -3 5 8 0
24 -3 34 -7z m1671 -11 c-3 -5 -12 -10 -18 -10 -7 0 -6 4 3 10 19 12 23 12 15
0z m-1548 -31 c11 -4 24 -12 27 -18 6 -9 -3 -6 -74 27 l-25 12 25 -6 c14 -4
35 -10 47 -15z m1493 7 c0 -2 -9 -6 -20 -9 -11 -3 -18 -1 -14 4 5 9 34 13 34
5z m-1421 -39 c0 -9 -2 -8 -6 1 -2 6 -10 9 -15 6 -7 -4 -8 -2 -4 5 9 13 26 5
25 -12z m52 -5 c-7 -2 -18 1 -23 6 -8 8 -4 9 13 5 13 -4 18 -8 10 -11z m102
-19 c-7 -2 -19 -2 -25 0 -7 3 -2 5 12 5 14 0 19 -2 13 -5z m51 -12 c4 -5 -3
-7 -14 -4 -23 6 -26 13 -6 13 8 0 17 -4 20 -9z m43 -7 c-3 -3 -12 -4 -19 -1
-8 3 -5 6 6 6 11 1 17 -2 13 -5z m43 -14 c-8 -5 -19 -10 -25 -10 -5 0 -3 5 5
10 8 5 20 10 25 10 6 0 3 -5 -5 -10z m63 -7 c-7 -2 -19 -2 -25 0 -7 3 -2 5 12
5 14 0 19 -2 13 -5z m214 -19 c-3 -3 -12 -4 -19 -1 -8 3 -5 6 6 6 11 1 17 -2
13 -5z m96 -1 c-13 -2 -33 -2 -45 0 -13 2 -3 4 22 4 25 0 35 -2 23 -4z m120 0
c-7 -2 -19 -2 -25 0 -7 3 -2 5 12 5 14 0 19 -2 13 -5z m702 -103 c-3 -5 -12
-10 -18 -10 -7 0 -6 4 3 10 19 12 23 12 15 0z m-41 -9 c3 -5 -1 -11 -9 -14 -9
-4 -12 -1 -8 9 6 16 10 17 17 5z m236 -18 c-52 -17 -70 -21 -70 -17 0 8 43 23
65 23 13 -1 15 -2 5 -6z m-203 -49 c-3 -3 -12 -4 -19 -1 -8 3 -5 6 6 6 11 1
17 -2 13 -5z m-217 -24 c-13 -11 -27 -20 -33 -20 -12 0 35 39 47 40 5 0 -1 -9
-14 -20z m-1329 -166 c62 -59 50 -172 -21 -209 -55 -28 -104 -27 -147 4 -61
44 -74 122 -32 188 35 57 148 67 200 17z"/>
<path d="M4748 5321 c-118 -38 -189 -144 -173 -259 15 -112 96 -188 212 -199
193 -19 317 203 208 369 -47 71 -168 114 -247 89z m162 -78 c49 -28 54 -86 11
-132 -39 -42 -82 -42 -123 -1 -27 27 -30 36 -25 73 10 71 73 98 137 60z"/>
<path d="M1620 2860 c-82 -15 -149 -68 -192 -150 -18 -36 -23 -61 -23 -125 0
-70 4 -87 30 -134 68 -123 224 -178 347 -123 54 24 101 69 130 124 19 36 23
59 23 133 0 79 -4 97 -28 142 -30 58 -77 95 -147 117 -63 20 -99 24 -140 16z
m177 -70 c16 -6 37 -24 46 -39 43 -73 -4 -160 -87 -161 -30 0 -45 7 -72 34
-41 41 -46 89 -13 130 34 43 73 54 126 36z"/>
<path d="M2510 1874 c-143 -29 -287 -133 -343 -247 -123 -252 6 -574 264 -656
106 -34 230 -30 332 10 139 55 259 197 283 334 38 213 -70 432 -258 524 -96
48 -170 57 -278 35z m320 -206 c95 -40 145 -168 105 -266 -47 -110 -177 -156
-289 -102 -60 28 -96 83 -103 156 -17 160 139 275 287 212z"/>
<path d="M869 5823 c-13 -16 -12 -17 4 -4 16 13 21 21 13 21 -2 0 -10 -8 -17
-17z"/>
</g>
</svg>
